<svg

        version="1.1"
        xmlns="http://www.w3.org/2000/svg" viewBox="0 0 550 470"
        style="background-image: radial-gradient(circle closest-side, rgba(255, 255, 255, 0.07) 0%, rgba(255, 255, 255, 0) 100%);">
    <style>#pulse-circle1 {
        transform: scale(0);
        opacity: 0;
        transform-origin: 50% 50%;
        animation: pulse 4s cubic-bezier(.5,.5,0,1) infinite;
        }

        #pulse-circle2 {
        transform: scale(0);
        opacity: 0;
        transform-origin: 50% 50%;
        animation: pulse 4s 0.75s cubic-bezier(.5,.5,0,1) infinite;
        }

        #pulse-circle3 {
        transform: scale(0);
        opacity: 0;
        transform-origin: 50% 50%;
        animation: pulse 4s 1.5s cubic-bezier(.5,.5,0,1) infinite;
        }

        @keyframes pulse {
        12% {
        opacity: 0.3;
        }

        50% {
        transform: scale(1);
        }

        100% {
        transform: scale(1);
        }
        }
    </style>
    <g fill="rgb(244,55,76)" fill-rule="nonzero" stroke="none" stroke-width="1" stroke-linecap="butt"
       stroke-linejoin="miter"
       stroke-miterlimit="10" stroke-dasharray="" stroke-dashoffset="0" font-family="none"
       font-size="none" style="mix-blend-mode: normal; animation-play-state: running;">
        <g
                style="animation-play-state: running;">
            <g>
                <path d="M73.34279,299.8519h-8.34279v41.71396h23.89614v-8.2832h-15.55335z"
                      style="animation-play-state: running;"></path>
                <path d="M128.04767,326.19129v-26.33939h-8.34279v26.39898h0.05959c-0.05959,2.0857 -0.83428,3.99262 -2.32406,5.48241c-1.48978,1.48978 -3.39671,2.26447 -5.48241,2.26447c-2.0857,0 -4.05221,-0.77469 -5.542,-2.26447c-1.48978,-1.48978 -2.32406,-3.4563 -2.32406,-5.542v-26.33939h-8.34279v26.39898c0.05959,8.87911 7.27015,16.08967 16.20885,16.08967c8.87911,0 16.14926,-7.21056 16.14926,-16.14926z"
                      style="animation-play-state: running;"></path>
                <path d="M134.96027,341.56586v-41.71396h8.34279v41.71396z"
                      style="animation-play-state: running;"></path>
                <path d="M188.89047,299.8519h-10.24972l-9.71339,13.70602l-9.71339,-13.70602h-10.24972l14.83825,20.91657l-14.83825,20.85698h10.24972l9.71339,-13.64642l9.71339,13.64642h10.24972l-14.83825,-20.85698z"
                      style="animation-play-state: running;"></path>
                <path d="M243.83371,326.19129v-26.33939h-8.34279v26.39898h0.05959c-0.05959,2.0857 -0.83428,3.99262 -2.32406,5.48241c-1.48978,1.48978 -3.39671,2.26447 -5.48241,2.26447c-2.0857,0 -4.05221,-0.77469 -5.542,-2.26447c-1.48978,-1.48978 -2.32406,-3.4563 -2.32406,-5.542v-26.33939h-8.34279v26.39898c0.05959,8.87911 7.27015,16.08967 16.20885,16.08967c8.87911,0 16.14926,-7.21056 16.14926,-16.14926z"
                      style="animation-play-state: running;"></path>
                <path d="M282.5681,341.62545l-23.479,-24.37287v24.37287h-8.34279v-41.77355h2.62202l23.06186,23.35982v-23.35982h8.34279v41.77355z"
                      style="animation-play-state: running;"></path>
                <path d="M292.51986,341.56586v-41.71396h8.34279v41.71396z"
                      style="animation-play-state: running;"></path>
                <path d="M326.72531,341.62545l18.83087,-41.77355h-9.23666l-10.84563,23.71737l-10.90522,-23.71737h-9.23666l18.89047,41.77355z"
                      style="animation-play-state: running;"></path>
                <path d="M380.23837,299.8519h-27.82917v8.34279h27.82917zM352.40919,324.28436h23.06186v-8.34279h-23.06186zM352.40919,341.62545h27.6504v-8.34279h-27.6504z"
                      style="animation-play-state: running;"></path>
                <path d="M403.71737,308.1351c2.32406,0 4.1714,1.90692 4.1714,4.23099c0,2.32406 -1.84733,4.1714 -4.1714,4.1714h-3.21793v8.34279l7.80647,16.74518h8.87911l-8.2832,-17.87741c4.35017,-1.96652 7.32974,-6.31669 7.32974,-11.38195c0,-6.9126 -5.60159,-12.57378 -12.51419,-12.57378h-16.32804v41.77355h8.34279v-33.43076z"
                      style="animation-play-state: running;"></path>
                <path d="M436.96935,323.98641l0.17877,0.05959c4.35017,1.48978 6.9126,3.57548 6.9126,5.83995c0,1.07264 -1.13224,4.23099 -4.58854,4.23099c-1.84733,0 -6.79342,0 -11.20318,-4.70772l-6.07832,5.72077c2.86039,3.03916 6.1975,5.12486 9.95176,6.31669c2.97957,0.89387 5.48241,1.01305 7.32974,1.01305c3.75426,0 7.15096,-1.54938 9.59421,-4.29058c2.0857,-2.32406 3.33712,-5.36322 3.33712,-8.2832c0,-2.97957 -1.13224,-5.78036 -3.27753,-8.16402c-2.14529,-2.32406 -5.24404,-4.1714 -9.23666,-5.542c-0.35755,-0.11918 -0.7151,-0.23837 -1.19183,-0.35755c-3.81385,-0.95346 -5.30363,-2.14529 -5.36322,-4.29058c-0.05959,-1.3706 0.35755,-2.02611 0.7151,-2.38365c1.07264,-1.13224 3.15834,-1.54938 3.69467,-1.54938c3.63507,0 5.36322,1.13224 8.04484,2.86039l1.48978,0.95346l4.35017,-7.09137l-1.3706,-0.89387c-3.03916,-1.96652 -6.43587,-4.1714 -12.51419,-4.1714c-2.14529,0 -6.61464,0.89387 -9.71339,4.1118c-2.14529,2.26447 -3.21793,5.18445 -3.03916,8.52157c0.17877,3.99262 2.02611,7.21056 5.36322,9.41544c2.38365,1.60897 4.94608,2.26447 6.31669,2.62202z"
                      style="animation-play-state: running;"></path>
                <path d="M485,299.8519h-27.82917v8.34279h27.82917zM457.17083,324.28436h23.06186v-8.34279h-23.06186zM457.17083,341.62545h27.6504v-8.34279h-27.6504z"
                      style="animation-play-state: running;"></path>
            </g>
            <g
                    style="animation-play-state: running;">
                <path d="M203.15863,199.38164c0,-39.67689 32.16448,-71.84137 71.84137,-71.84137c39.67689,0 71.84137,32.16448 71.84137,71.84137c0,39.67689 -32.16448,71.84137 -71.84137,71.84137c-39.67689,0 -71.84137,-32.16448 -71.84137,-71.84137zM273.73807,135.05046c-11.4043,0.00001 -20.66364,28.8158 -20.66364,64.32795c0,35.53314 9.25772,64.33118 20.67172,64.33441c5.63436,-0.00323 10.74904,-7.0482 14.47568,-18.46057c3.15369,7.67604 7.12406,12.26293 11.43335,12.26293c10.27614,0.00323 18.61229,-25.93002 18.60421,-57.91405c0.00807,-31.98241 -8.32162,-57.9205 -18.59454,-57.90759c-4.27863,0 -8.21995,4.51427 -11.36395,12.07895c-3.73633,-11.55924 -8.87844,-18.71558 -14.56284,-18.72204zM257.25784,141.38367c-24.33058,10.10345 -41.20301,32.16639 -41.20301,57.74619c-0.00646,25.58463 16.87243,47.64437 41.2143,57.74296c-13.94631,-12.06926 -23.21048,-33.42529 -23.21048,-57.74135c0,-24.31606 9.27064,-45.67047 23.19919,-57.74781zM287.36481,156.17408c-3.86545,10.61346 -6.30578,26.13177 -6.30578,43.42868c-0.00162,17.1452 2.39513,32.5473 6.19926,43.15107c-1.85606,2.51618 -3.90257,3.91227 -6.04916,3.91227c-8.39586,-0.00646 -15.1939,-21.17042 -15.1939,-47.28767c0,-26.10433 6.79804,-47.27799 15.1826,-47.27799c2.19823,0.00484 4.28509,1.46387 6.16697,4.07366zM315.50113,199.60437c0.00807,17.94895 -4.461,32.51018 -9.96464,32.51018c-5.50686,0 -9.96788,-14.56284 -9.96788,-32.50372c0,-17.95863 4.461,-32.51501 9.96788,-32.52147c5.51009,0.00484 9.9711,14.55962 9.96464,32.51501zM323.38537,198.74574c0.00484,9.60472 2.39029,17.38405 5.33094,17.38405c2.94226,0 5.32932,-7.78579 5.33416,-17.37922c-0.00484,-9.60473 -2.38706,-17.38729 -5.33094,-17.38729c-2.94388,0.00162 -5.33901,7.78416 -5.33416,17.38244z"
                      style="animation-play-state: running;"></path>
            </g>
        </g>
    </g>
    <circle id="pulse-circle1" cx="50%" cy="50%" r="45%" stroke="rgb(244,55,76)" stroke-width="5" fill="none"
            style="animation-play-state: running;"></circle>
    <circle id="pulse-circle2" cx="50%" cy="50%" r="45%" stroke="rgb(244,55,76)" stroke-width="5" fill="none"
            style="animation-play-state: running;"></circle>
    <circle id="pulse-circle3" cx="50%" cy="50%" r="45%" stroke="rgb(244,55,76)" stroke-width="5" fill="none"
            style="animation-play-state: running;"></circle>
</svg>