<svg version="1.1" xmlns="http://www.w3.org/2000/svg"
     viewBox="0 0 550 470"
     style="background-color: rgb(68, 0, 21); background-image: radial-gradient(circle closest-side, rgba(255, 255, 255, 0.07) 0%, rgba(255, 255, 255, 0) 100%);">
    <defs style="animation-play-state: running;">
        <g fill-rule="nonzero" font-family="none" font-size="none" text-anchor="none"
           style="mix-blend-mode: normal; animation-play-state: running;" id="interstellar-group">
            <g style="animation-play-state: running;">
                <g style="animation-play-state: running;">
                    <path d="M149.48122,210.71312v48.50457h9.68708v-19.37415h6.01983c8.02643,0 14.53061,-6.50418 14.53061,-14.53061c0,-8.02643 -6.50418,-14.59981 -14.53061,-14.59981zM159.16829,230.15646v-9.75627h6.01983c2.62935,0 4.84354,2.21419 4.84354,4.91273c0,2.69854 -2.21419,4.84354 -4.84354,4.84354z"
                          style="animation-play-state: running;"></path>
                    <path d="M203.72884,210.71312l-24.70204,48.50457h10.86336l15.01497,-29.47639l13.83868,29.47639h10.72498l-22.90301,-48.50457z"
                          style="animation-play-state: running;"></path>
                    <path d="M252.16422,238.73644l0.20758,0.06919c5.05112,1.72983 8.02643,4.1516 8.02643,6.78095c0,1.24548 -1.31467,4.91273 -5.32789,4.91273c-2.145,0 -7.88805,0 -13.00836,-5.46628l-7.05773,6.64257c3.32128,3.52886 7.19611,5.95063 11.5553,7.3345c3.45967,1.0379 6.36579,1.17629 8.51079,1.17629c4.35918,0 8.30321,-1.79903 11.14014,-4.98192c2.42177,-2.69854 3.87483,-6.22741 3.87483,-9.61788c0,-3.45967 -1.31467,-6.71176 -3.80564,-9.4795c-2.49096,-2.69854 -6.08902,-4.84354 -10.72498,-6.43499c-0.41516,-0.13839 -0.83032,-0.27677 -1.38387,-0.41516c-4.42838,-1.10709 -6.15821,-2.49096 -6.22741,-4.98192c-0.06919,-1.59145 0.41516,-2.35258 0.83032,-2.76774c1.24548,-1.31467 3.66725,-1.79903 4.28999,-1.79903c4.2208,0 6.22741,1.31467 9.34111,3.32128l1.72983,1.10709l5.05112,-8.23401l-1.59145,-1.0379c-3.52886,-2.28338 -7.47289,-4.84354 -14.53061,-4.84354c-2.49096,0 -7.68047,1.0379 -11.27852,4.77434c-2.49096,2.62935 -3.73644,6.01983 -3.52886,9.89466c0.20758,4.63596 2.35258,8.3724 6.22741,10.93256c2.76774,1.86822 5.74305,2.62935 7.3345,3.04451z"
                          style="animation-play-state: running;"></path>
                    <path d="M293.47268,238.73644l0.20758,0.06919c5.05112,1.72983 8.02643,4.1516 8.02643,6.78095c0,1.24548 -1.31467,4.91273 -5.32789,4.91273c-2.145,0 -7.88805,0 -13.00836,-5.46628l-7.05773,6.64257c3.32128,3.52886 7.19611,5.95063 11.5553,7.3345c3.45967,1.0379 6.36579,1.17629 8.51079,1.17629c4.35918,0 8.30321,-1.79903 11.14014,-4.98192c2.42177,-2.69854 3.87483,-6.22741 3.87483,-9.61788c0,-3.45967 -1.31467,-6.71176 -3.80564,-9.4795c-2.49096,-2.69854 -6.08902,-4.84354 -10.72498,-6.43499c-0.41516,-0.13839 -0.83032,-0.27677 -1.38387,-0.41516c-4.42838,-1.10709 -6.15821,-2.49096 -6.22741,-4.98192c-0.06919,-1.59145 0.41516,-2.35258 0.83032,-2.76774c1.24548,-1.31467 3.66725,-1.79903 4.28999,-1.79903c4.2208,0 6.22741,1.31467 9.34111,3.32128l1.72983,1.10709l5.05112,-8.23401l-1.59145,-1.0379c-3.52886,-2.28338 -7.47289,-4.84354 -14.53061,-4.84354c-2.49096,0 -7.68047,1.0379 -11.27852,4.77434c-2.49096,2.62935 -3.73644,6.01983 -3.52886,9.89466c0.20758,4.63596 2.35258,8.3724 6.22741,10.93256c2.76774,1.86822 5.74305,2.62935 7.3345,3.04451z"
                          style="animation-play-state: running;"></path>
                    <path d="M318.86665,210.71312v48.50457h9.68708v-19.37415h6.01983c8.02643,0 14.53061,-6.50418 14.53061,-14.53061c0,-8.02643 -6.50418,-14.59981 -14.53061,-14.59981zM328.55373,230.15646v-9.75627h6.01983c2.62935,0 4.84354,2.21419 4.84354,4.91273c0,2.69854 -2.21419,4.84354 -4.84354,4.84354z"
                          style="animation-play-state: running;"></path>
                    <path d="M379.06491,209.8136c-13.83868,0 -25.1172,11.27852 -25.1172,25.1172c0,13.83868 11.27852,25.1172 25.1172,25.1172c13.83868,0 25.1172,-11.27852 25.1172,-25.1172c0,-13.83868 -11.27852,-25.1172 -25.1172,-25.1172zM379.06491,219.77745c8.3724,0 15.15335,6.78095 15.15335,15.15335c0,8.3724 -6.78095,15.15335 -15.15335,15.15335c-8.3724,0 -15.15335,-6.78095 -15.15335,-15.15335c0,-8.3724 6.78095,-15.15335 15.15335,-15.15335z"
                          style="animation-play-state: running;"></path>
                    <path d="M430.75238,220.331c2.69854,0 4.84354,2.21419 4.84354,4.91273c0,2.69854 -2.145,4.84354 -4.84354,4.84354h-3.73644v9.68708l9.06433,19.44334h10.30982l-9.61788,-20.75802c5.05112,-2.28338 8.51079,-7.3345 8.51079,-13.21594c0,-8.02643 -6.50418,-14.59981 -14.53061,-14.59981h-18.95899v48.50457h9.68708v-38.8175z"
                          style="animation-play-state: running;"></path>
                    <path d="M448.39669,210.71312v9.68708h13.49271v38.8175h9.68708v-38.8175h13.42352v-9.68708z"
                          style="animation-play-state: running;"></path>
                </g>
                <g
                        style="animation-play-state: running;">
                    <path d="M69.46436,238.25119l-0.00608,1.1137c-0.0026,0.5473 0.33619,1.03725 0.84874,1.22837c0.14768,0.0556 0.30145,0.08166 0.45347,0.08166c0.37355,0 0.73841,-0.16071 0.99034,-0.45695l3.88753,-4.54862c0.42828,-0.50038 0.41525,-1.2414 -0.02954,-1.72702l-3.84235,-4.19418c-0.36226,-0.39527 -0.92779,-0.52818 -1.42991,-0.33533c-0.50038,0.19372 -0.83137,0.67326 -0.83397,1.20926l-0.00521,1.11283l-4.37136,-0.02234c0.58982,-4.53986 2.38444,-8.70146 5.05263,-12.15353l3.05598,3.08732l-0.79227,0.78359c-0.38919,0.38397 -0.49604,0.97123 -0.26844,1.46814l0,0c0.21284,0.4665 0.6776,0.761 1.18407,0.761c0.03388,0 0.06863,-0.00087 0.10338,-0.00348l5.96551,-0.46737c0.65589,-0.05126 1.17104,-0.58465 1.19971,-1.24227l0.24845,-5.68317c0.02346,-0.536 -0.28407,-1.03117 -0.77403,-1.24835c-0.48996,-0.21544 -1.06331,-0.11206 -1.44468,0.26583l-0.79141,0.78272l-3.07367,-3.10585c3.45811,-2.66005 7.62411,-4.44523 12.16684,-5.02437l-0.02285,4.3452l-1.1137,-0.00608c-0.54903,-0.02867 -1.03725,0.33619 -1.22837,0.84874c-0.19112,0.51255 -0.0417,1.08938 0.37442,1.44468l4.54862,3.88753c0.24498,0.20849 0.54556,0.31274 0.847,0.31274c0.31622,0 0.63156,-0.11467 0.88088,-0.34228l4.19418,-3.84235c0.39527,-0.36226 0.52905,-0.92953 0.33533,-1.42991c-0.19372,-0.50038 -0.67326,-0.83137 -1.20926,-0.83397l-1.11283,-0.00521l0.02234,-4.37136c4.53997,0.58983 8.70167,2.38453 12.15379,5.05282l-3.0893,3.05665l-0.78272,-0.79227c-0.38485,-0.38919 -0.97123,-0.49604 -1.46814,-0.26844c-0.49691,0.2276 -0.80009,0.74189 -0.75666,1.28657l0.46824,5.96551c0.05125,0.65675 0.58465,1.17104 1.24227,1.19971l5.6823,0.24846c0.01824,0.00087 0.03822,0.00087 0.05647,0.00087c0.51428,0 0.98165,-0.30231 1.19102,-0.77316c0.21718,-0.48996 0.11206,-1.06419 -0.26496,-1.44468l-0.78272,-0.79141l3.10661,-3.07442c2.65963,3.45791 4.44452,7.62355 5.02361,12.16585l-4.34433,-0.02285l0.00608,-1.11283c0.00174,-0.5473 -0.33619,-1.03725 -0.84874,-1.22837c-0.51081,-0.18938 -1.09024,-0.0417 -1.44555,0.37442l-3.88753,4.54776c-0.42741,0.50038 -0.41525,1.24053 0.02954,1.72615l3.84235,4.19506c0.25193,0.27452 0.60289,0.42307 0.96081,0.42307c0.15724,0 0.31622,-0.02867 0.46911,-0.08774c0.49952,-0.19286 0.83137,-0.67326 0.83397,-1.20926l0.00608,-1.1137l4.37063,0.023c-0.58963,4.53996 -2.38412,8.70168 -5.0522,12.15388l-3.05654,-3.08919l0.79054,-0.78185c0.39005,-0.38485 0.49691,-0.97123 0.2693,-1.46814c-0.2276,-0.49778 -0.74623,-0.79575 -1.28657,-0.75666l-5.96377,0.46737c-0.65675,0.05125 -1.17104,0.58378 -1.20057,1.2414l-0.25019,5.68317c-0.02259,0.53687 0.28494,1.03204 0.77403,1.24922c0.48735,0.21718 1.06331,0.11207 1.44468,-0.26496l0.79227,-0.78359l3.07329,3.10614c-3.45781,2.65972 -7.62337,4.44473 -12.1656,5.02397l0.02286,-4.34509l1.11283,0.00608h0.00695c0.00608,0.00087 0.01303,0.00087 0.01737,0c0.72017,0 1.30308,-0.58378 1.30308,-1.30308c0,-0.45955 -0.23716,-0.86177 -0.59507,-1.09459l-4.427,-3.78328c-0.50038,-0.42741 -1.2414,-0.41525 -1.72702,0.02954l-4.19506,3.84235c-0.39527,0.36226 -0.52818,0.92953 -0.33533,1.42991c0.19372,0.49952 0.67326,0.83137 1.20926,0.83397l1.1137,0.00608l-0.023,4.37052c-4.5401,-0.5898 -8.70191,-2.38455 -12.15411,-5.05294l3.08681,-3.05483l0.78272,0.79054c0.25019,0.2528 0.58552,0.38658 0.92693,0.38658h0.01737c0.72017,0 1.30308,-0.58378 1.30308,-1.30308c0,-0.10772 -0.01303,-0.21284 -0.03736,-0.31274l-0.45086,-5.75267c-0.05212,-0.65588 -0.58465,-1.17104 -1.24227,-1.20057l-5.68317,-0.25019c-0.52471,-0.0139 -1.03117,0.28407 -1.24835,0.77403c-0.21718,0.48996 -0.11206,1.06419 0.26496,1.44468l0.78272,0.79227l-3.10515,3.07232c-2.65948,-3.45785 -4.44427,-7.62336 -5.02333,-12.1655zM90.33277,217.72244l-1.29787,-1.10936c0.30231,-0.23629 0.49778,-0.60463 0.49952,-1.01814l0.02954,-5.78134l1.30308,0.00695l-0.02954,5.78047c-0.00174,0.34575 0.13465,0.6776 0.37703,0.92345c0.0695,0.0695 0.14508,0.13031 0.22674,0.18243zM76.00322,221.73854l-4.06562,-4.10818l0.92606,-0.9165l4.06735,4.10818c0.24324,0.24585 0.57422,0.38484 0.91911,0.38658c0.11206,-0.00087 0.19459,-0.01042 0.28928,-0.03127l-0.06602,1.50202l-1.70269,0.13291c0.04604,-0.38137 -0.07645,-0.77924 -0.36747,-1.07374zM104.00905,222.95388l-1.50202,-0.06602l-0.13378,-1.70182c0.38137,0.04604 0.77837,-0.07645 1.07287,-0.36747l4.10992,-4.06648l0.91737,0.92692l-4.10905,4.06562c-0.24585,0.24324 -0.38484,0.57423 -0.38658,0.91998c-0.00087,0.09816 0.01042,0.19459 0.03127,0.28928zM90.007,248.70973c0.03006,0 0.05994,-0.00104 0.08948,-0.00304c0.02954,0.002 0.05942,0.00304 0.08948,0.00304c0.03006,0 0.05994,-0.00104 0.08948,-0.00304c0.02954,0.002 0.05942,0.00304 0.08948,0.00304c2.17093,0 4.07777,-1.14237 4.8796,-2.79467c2.75385,-0.15116 4.94129,-2.12142 4.94129,-4.52256c0,-0.07819 -0.00261,-0.15637 -0.00782,-0.23542c0.84266,-0.81834 1.31177,-1.87383 1.31177,-2.99275c0,-0.5777 -0.1251,-1.13716 -0.36573,-1.66099c0.72278,-0.79053 1.13194,-1.77914 1.13194,-2.8051c0,-1.68966 -1.072,-3.18821 -2.72691,-3.96658c0.01216,-0.12944 0.01911,-0.25975 0.01911,-0.39093c0,-1.95115 -1.4108,-3.61388 -3.47402,-4.23588c-0.55859,-2.17875 -2.83637,-3.81456 -5.55113,-3.81456c-0.05829,0 -0.11563,0.00382 -0.17192,0.01121c-0.05403,-0.00678 -0.1092,-0.01034 -0.16514,-0.01034c-0.05629,0 -0.11172,0.00356 -0.16601,0.01042c-0.05655,-0.00747 -0.11424,-0.01129 -0.17279,-0.01129c-2.71562,0 -4.99254,1.63667 -5.55113,3.81542c-2.06321,0.622 -3.47402,2.28474 -3.47402,4.23588c0,0.13118 0.00608,0.26148 0.01911,0.39093c-1.65405,0.77837 -2.72518,2.27692 -2.72518,3.96571c0,1.02683 0.40917,2.01456 1.13194,2.8051c-0.24064,0.52297 -0.36486,1.08329 -0.36486,1.66099c0,1.11978 0.46911,2.17528 1.31003,2.99274c-0.00521,0.07819 -0.00782,0.15724 -0.00782,0.23542c0,2.40115 2.18744,4.3714 4.94215,4.52256c0.8027,1.65231 2.71041,2.79467 4.87961,2.79467zM88.88288,234.42594c-0.00061,0.0159 -0.00087,0.03197 -0.00087,0.04804c0,0.71669 -0.57683,1.27007 -1.14758,1.44555c-0.49951,0.15116 -0.9,0.01911 -1.18493,-0.40135c-0.40395,-0.5942 -1.2136,-0.74971 -1.81042,-0.34488c-0.59508,0.40396 -0.74884,1.21448 -0.34488,1.80955c0.70627,1.03986 1.78001,1.60627 2.95452,1.60627c0.37616,0 0.76361,-0.05907 1.15193,-0.17896c0.1304,-0.04013 0.25792,-0.08618 0.38224,-0.13778v7.64709c-0.77499,-0.26548 -1.36267,-0.79349 -1.51444,-1.42323c0.02554,-0.22057 0.14655,-0.37494 0.26001,-0.44982c0.60289,-0.39266 0.77316,-1.20057 0.37963,-1.8026c-0.39266,-0.60376 -1.20057,-0.77316 -1.80346,-0.37963c-0.53609,0.34966 -0.94439,0.84743 -1.18867,1.42557c-1.08217,-0.13873 -1.96452,-0.76482 -2.17675,-1.53903c1.40629,-0.43566 2.41418,-1.59367 2.41418,-2.94966c0,-0.7193 -0.58291,-1.30308 -1.30308,-1.30308c-0.72017,0 -1.30308,0.58378 -1.30308,1.30308c0,0.14386 -0.23664,0.38128 -0.64346,0.48136c-0.33168,-0.32751 -0.51541,-0.71974 -0.51541,-1.11813c0,-0.25619 0.07592,-0.48197 0.178,-0.66987c1.63876,-0.28077 2.87729,-1.52756 2.87729,-3.02046c0,-0.72017 -0.58291,-1.30308 -1.30308,-1.30308c-0.72017,0 -1.30308,0.58291 -1.30308,1.30308c0,0.10772 -0.2098,0.33802 -0.60506,0.4321c-0.39249,-0.34401 -0.61115,-0.76969 -0.61115,-1.207c0,-0.80834 0.76656,-1.55874 1.83987,-1.82171c0.90086,0.02424 1.44686,0.29354 1.61852,0.43784c0.08079,0.64199 0.62895,1.13802 1.29266,1.13802c0.7193,0 1.30308,-0.58378 1.30308,-1.30308c0,-1.43895 -1.35894,-2.53814 -3.34718,-2.8137c0.00252,-0.64868 0.48926,-1.24253 1.22663,-1.58368c0.18982,0.2832 0.43184,0.5413 0.72017,0.76265c0.23716,0.18156 0.51602,0.2693 0.79314,0.2693c0.39179,0 0.77837,-0.17548 1.03378,-0.50907c0.4387,-0.57162 0.33098,-1.38995 -0.23977,-1.82779c-0.11554,-0.08861 -0.18764,-0.18938 -0.18764,-0.26148v-0.00087c0,-0.02606 -0.00087,-0.05647 -0.00261,-0.08687c0.02771,-0.9542 0.91789,-1.78548 2.11099,-2.08432v10.41162zM91.48904,224.01441v0h0zM91.48904,224.01441c1.21126,0.3024 2.10986,1.14828 2.11012,2.08797c-0.00148,0.02285 -0.00226,0.04578 -0.00252,0.0688l-0.00009,0.01433c0,0.10338 -0.14681,0.27712 -0.41959,0.397c-0.65849,0.29015 -0.9582,1.05984 -0.66804,1.71833c0.21457,0.48822 0.69237,0.77837 1.19362,0.77837c0.17548,0 0.35357,-0.03562 0.52471,-0.1112c0.63651,-0.28034 1.14697,-0.70505 1.48942,-1.21482c0.73693,0.34141 1.22333,0.93561 1.22533,1.58446c-1.98754,0.27591 -3.34544,1.37423 -3.34544,2.81335c0,0.72017 0.58378,1.30308 1.30308,1.30308c0.66284,0 1.211,-0.49691 1.29266,-1.13802c0.17157,-0.14421 0.71817,-0.41342 1.61852,-0.43784c1.07278,0.26166 1.83813,1.01189 1.83813,1.81997c0,0.43757 -0.21831,0.86342 -0.61132,1.20752c-0.39388,-0.09435 -0.60315,-0.32412 -0.60315,-0.43176c0,-0.72017 -0.58378,-1.30308 -1.30308,-1.30308c-0.7193,0 -1.30308,0.58291 -1.30308,1.30308c0,1.49229 1.2381,2.73977 2.87694,3.02054c0.10242,0.18817 0.17835,0.41369 0.17835,0.66892c0,0.39735 -0.184,0.7901 -0.51654,1.11874c-0.40665,-0.10008 -0.6432,-0.33681 -0.6432,-0.4811c0,-0.7193 -0.58378,-1.30308 -1.30308,-1.30308c-0.7193,0 -1.30308,0.58378 -1.30308,1.30308c0,1.35529 1.00746,2.51278 2.41322,2.94905c-0.21249,0.77455 -1.09572,1.40081 -2.17875,1.53903c-0.17878,-0.4222 -0.44478,-0.80417 -0.78524,-1.1157c-0.52992,-0.48475 -1.3526,-0.45 -1.84082,0.08166c-0.48562,0.52992 -0.44913,1.35434 0.08166,1.84082c0.10677,0.09799 0.17539,0.23907 0.19442,0.39631c-0.14924,0.63156 -0.73693,1.16105 -1.51314,1.42696v-10.1398c0.27017,-0.14638 0.399,-0.15029 0.39961,-0.15785c0.06689,0.05473 0.22066,0.34575 0.22066,0.77316c0,0.7193 0.58378,1.30308 1.30308,1.30308c0.7193,0 1.30308,-0.58291 1.30308,-1.30221c0,-1.09024 -0.42915,-2.47498 -1.63493,-3.09091c-0.39101,-0.20007 -0.92501,-0.34818 -1.5915,-0.2488zM70.78047,235.65198l-5.78047,-0.03041l0.00695,-1.30308l5.78047,0.02954h0.00695c0.34315,0 0.67239,-0.13552 0.9165,-0.37703c0.0695,-0.06863 0.13031,-0.14508 0.18243,-0.22674l1.01554,1.10849l-1.10936,1.29874c-0.23716,-0.30231 -0.60463,-0.49778 -1.01901,-0.49952zM108.47949,236.25574l-1.01553,-1.10849l1.10935,-1.29874c0.23803,0.30145 0.60463,0.49691 1.01901,0.49865l5.78047,0.03041l-0.00782,1.30395l-5.77873,-0.03041c-0.33272,0.00087 -0.67847,0.13378 -0.92345,0.37703c-0.07037,0.0695 -0.13118,0.14595 -0.1833,0.2276zM72.81675,253.24879l-0.91737,-0.92693l4.10905,-4.06474c0.33011,-0.32751 0.44913,-0.78793 0.3553,-1.21013l1.50202,0.06602l0.13291,1.70182c-0.38137,-0.0417 -0.77837,0.07732 -1.07287,0.36747zM103.44264,249.17883c-0.25541,-0.25801 -0.58986,-0.38658 -0.92606,-0.38658c-0.09469,0 -0.18938,0.01042 -0.28407,0.03127l0.06602,-1.50202l1.70182,-0.13292c-0.04604,0.3805 0.07645,0.77837 0.36747,1.072l4.06648,4.10905l-0.92693,0.91737zM90.80797,260.18639l-1.30395,-0.00782l0.03127,-5.77786c0.00174,-0.34575 -0.13378,-0.67847 -0.37703,-0.92345c-0.0695,-0.07037 -0.14595,-0.13118 -0.2276,-0.1833l1.10849,-1.01553l1.29787,1.10849c-0.30145,0.23803 -0.49691,0.60463 -0.49865,1.01901z"
                          style="animation-play-state: running;"></path>
                </g>
            </g>
        </g>
    </defs>
    <style>
        .strokeItem{
        fill: none;
        stroke-width: 2;
        stroke-linejoin: round;
        stroke-dasharray: 70 10;
        stroke-dashoffset: 0;
        animation: stroke 6000ms infinite linear;
        }

        @keyframes stroke {
        100% {
        stroke-dashoffset: -80;
        }
        }
    </style>
    <use href="#interstellar-group" class="strokeItem"
         style="stroke: rgb(228, 0, 70); animation-delay: 0ms; animation-play-state: running;"></use>
</svg>