<svg xmlns:mydata="http://www.w3.org/2000/svg" xmlns="http://www.w3.org/2000/svg"
     xmlns:xlink="http://www.w3.org/1999/xlink" mydata:contrastcolor="fbbfc6"
     mydata:template="BlackAndHighlightColorHex1" mydata:presentation="2.5" mydata:layouttype="undefined"
     mydata:specialfontid="undefined" mydata:id1="001" mydata:id2="682" mydata:companyname="Luix Passport"
     mydata:companytagline="" version="1.1" class="svg-mug" viewBox="146 106 258 258">
    <g fill="#f4364c" fill-rule="evenodd" stroke="none" stroke-width="1" stroke-linecap="butt" stroke-linejoin="miter"
       stroke-miterlimit="10" stroke-dasharray="" stroke-dashoffset="0" font-family="none" font-weight="none"
       font-size="none" text-anchor="none" style="mix-blend-mode: normal; fill: rgb(255, 255, 255);">
        <g data-paper-data="{&quot;isGlobalGroup&quot;:true,&quot;bounds&quot;:{&quot;x&quot;:146,&quot;y&quot;:106,&quot;width&quot;:258,&quot;height&quot;:258}}"
           style="fill: rgb(255, 255, 255);">
            <g data-paper-data="{&quot;fillRule&quot;:&quot;evenodd&quot;,&quot;fillRuleOriginal&quot;:&quot;evenodd&quot;,&quot;isIcon&quot;:true,&quot;iconStyle&quot;:&quot;standalone&quot;,&quot;selectedEffects&quot;:{&quot;container&quot;:&quot;&quot;,&quot;transformation&quot;:&quot;rotate0;translate50;flipX;flipY&quot;,&quot;pattern&quot;:&quot;&quot;},&quot;bounds&quot;:{&quot;x&quot;:199.2583432354759,&quot;y&quot;:159.2583436341162,&quot;width&quot;:151.48329758343712,&quot;height&quot;:151.48331273176765},&quot;iconType&quot;:&quot;icon&quot;,&quot;rawIconId&quot;:&quot;984468&quot;,&quot;isDetailed&quot;:false,&quot;suitableAsStandaloneIcon&quot;:true}"
               style="fill: rgb(255, 255, 255);">
                <path d="M231.00647,266.57097c6.95222,-0.03313 13.15528,-2.10211 18.60917,-6.20694c-4.12466,5.48419 -6.18699,11.75172 -6.18699,18.80259c-0.00197,8.70388 3.08256,16.14214 9.2536,22.31479c6.1719,6.1735 13.61176,9.26025 22.31959,9.26025c8.70549,0 16.14448,-3.08681 22.317,-9.26043c6.17202,-6.17313 9.25803,-13.61194 9.25803,-22.31644c-0.00185,-7.01614 -2.0691,-13.27277 -6.20176,-18.76989c5.48911,4.12257 11.75295,6.18384 18.7915,6.18384c8.70537,0 16.14436,-3.08675 22.317,-9.26025c6.17202,-6.17276 9.25803,-13.61102 9.25803,-22.31479c0,-8.70918 -3.08601,-16.15028 -9.25803,-22.32328c-6.17165,-6.17276 -13.61065,-9.25914 -22.317,-9.25914c-0.04003,0 -0.08005,0.0013 -0.12008,0.00388c-6.96589,0.02353 -13.18176,2.09053 -18.64759,6.20102c4.12232,-5.48997 6.18347,-11.75363 6.18347,-18.79095c-0.00098,-8.70573 -3.08768,-16.1448 -9.26006,-22.31719c-6.17313,-6.17313 -13.6133,-9.2597 -22.32051,-9.2597c-8.70734,0 -16.14714,3.08668 -22.3194,9.26006c-6.17165,6.17276 -9.25748,13.61231 -9.25748,22.31866c0,0.04003 0.0013,0.07999 0.00388,0.11989c0.02353,6.96922 2.0949,13.19013 6.21414,18.66274c-5.48997,-4.13106 -11.75985,-6.19659 -18.80961,-6.19659c-8.70573,-0.00098 -16.14473,3.08447 -22.317,9.25637c-6.17202,6.17178 -9.25803,13.61071 -9.25803,22.31682c0,8.70721 3.08613,16.14763 9.2584,22.32125c6.17276,6.17411 13.61287,9.26117 22.32032,9.26117c0.05665,0 0.11312,-0.00258 0.1694,-0.00776zM230.67653,262.88365c0.05345,-0.00468 0.10696,-0.00702 0.16053,-0.00702c6.86207,0 12.90071,-2.23998 18.11593,-6.71995c0.08756,-0.07513 0.18135,-0.14151 0.28135,-0.19915c0.1,-0.05764 0.2045,-0.10549 0.31349,-0.14354c0.10887,-0.03805 0.22039,-0.06565 0.33456,-0.08276c0.11417,-0.01712 0.22889,-0.02353 0.34416,-0.01922c0.1154,0.00443 0.22932,0.01946 0.34176,0.04507c0.11257,0.02574 0.22174,0.0617 0.32754,0.10789c0.10579,0.04619 0.20635,0.10179 0.30167,0.16681c0.09532,0.06502 0.18381,0.13836 0.26547,0.22002l2.26486,2.26486c0.08165,0.08165 0.15499,0.17014 0.22002,0.26547c0.06502,0.09545 0.12063,0.19606 0.16681,0.30186c0.04619,0.10579 0.08215,0.21497 0.10789,0.32754c0.02574,0.11257 0.04076,0.22648 0.04507,0.34176c0.00431,0.1154 -0.00209,0.23018 -0.01922,0.34434c-0.01724,0.11417 -0.04489,0.22575 -0.08294,0.33474c-0.03805,0.10899 -0.0859,0.21349 -0.14354,0.31349c-0.05776,0.1 -0.12427,0.19379 -0.19951,0.28135c-4.46605,5.19551 -6.69907,11.24197 -6.69907,18.13938c-0.00173,7.68402 2.72221,14.2515 8.17178,19.70243c5.45045,5.45192 12.01934,8.17788 19.70668,8.17788c7.68513,0 14.25322,-2.72603 19.70428,-8.17807c5.45069,-5.45167 8.17603,-12.01971 8.17603,-19.7041c-0.00173,-6.86158 -2.24238,-12.90096 -6.72198,-18.11815c-0.07513,-0.08744 -0.14151,-0.18117 -0.19915,-0.28117c-0.05751,-0.09988 -0.1053,-0.20425 -0.14336,-0.31312c-0.03805,-0.10887 -0.06565,-0.22039 -0.08276,-0.33456c-0.01712,-0.11404 -0.02353,-0.22864 -0.01922,-0.34379c0.00431,-0.11528 0.01934,-0.22913 0.04507,-0.34158c0.02562,-0.11245 0.06146,-0.22156 0.10752,-0.32736c0.04606,-0.10567 0.10155,-0.20617 0.16645,-0.30149c0.0649,-0.09545 0.13812,-0.18394 0.21965,-0.26547l2.25932,-2.26301c0.08165,-0.08178 0.17014,-0.15524 0.26547,-0.22039c0.09532,-0.06502 0.19588,-0.12069 0.30167,-0.167c0.10579,-0.04631 0.21497,-0.08233 0.32754,-0.10807c0.11257,-0.02587 0.22655,-0.04101 0.34194,-0.04544c0.1154,-0.00443 0.23018,0.00191 0.34434,0.01903c0.11417,0.01712 0.22575,0.0447 0.33474,0.08276c0.10912,0.03805 0.21367,0.0859 0.31368,0.14354c0.1,0.05764 0.19385,0.12402 0.28154,0.19915c5.20573,4.47023 11.25305,6.70536 18.14197,6.70536c7.68501,0 14.2531,-2.72596 19.70428,-8.17788c5.45069,-5.45143 8.17603,-12.01891 8.17603,-19.70243c0,-7.68907 -2.72534,-14.25938 -8.17603,-19.71093c-5.42335,-5.42421 -11.95351,-8.14974 -19.59049,-8.17659c-0.03793,0.00234 -0.07586,0.00351 -0.11379,0.00351c-6.86072,0 -12.89997,2.24115 -18.11777,6.72346c-0.08756,0.07525 -0.18141,0.14175 -0.28154,0.19951c-0.1,0.05764 -0.2045,0.10549 -0.31349,0.14354c-0.10912,0.03805 -0.22076,0.06565 -0.33493,0.08276c-0.11417,0.01712 -0.22895,0.02346 -0.34434,0.01903c-0.1154,-0.00443 -0.22938,-0.01958 -0.34194,-0.04544c-0.11257,-0.02574 -0.22181,-0.06176 -0.32772,-0.10807c-0.10579,-0.04619 -0.20635,-0.10185 -0.30167,-0.167c-0.09532,-0.06515 -0.18381,-0.13861 -0.26547,-0.22039l-2.25932,-2.26301c-0.08141,-0.08153 -0.15457,-0.16996 -0.21947,-0.26528c-0.06502,-0.09532 -0.12057,-0.19588 -0.16663,-0.30167c-0.04606,-0.10567 -0.0819,-0.21473 -0.10752,-0.32717c-0.02574,-0.11245 -0.04076,-0.2263 -0.04507,-0.34158c-0.00431,-0.11528 0.00209,-0.22994 0.01922,-0.34398c0.01712,-0.11404 0.0447,-0.2255 0.08276,-0.33437c0.03793,-0.10887 0.08572,-0.21324 0.14336,-0.31312c0.05751,-0.1 0.12384,-0.19372 0.19896,-0.28117c4.46913,-5.20659 6.70369,-11.25342 6.70369,-18.1405c-0.00086,-7.68526 -2.72688,-14.25347 -8.17807,-19.70465c-5.45167,-5.45167 -12.02094,-8.17752 -19.7078,-8.17752c-7.68697,0 -14.25587,2.7259 -19.70668,8.1777c-5.42347,5.42446 -8.14857,11.95536 -8.1753,19.5927c0.00234,0.03781 0.00351,0.07568 0.00351,0.11361c0,6.85554 2.24072,12.89375 6.72216,18.11463c0.07513,0.08744 0.14151,0.18117 0.19915,0.28117c0.05751,0.1 0.1053,0.20444 0.14336,0.31331c0.03793,0.10899 0.06546,0.22051 0.08257,0.33456c0.01712,0.11404 0.02353,0.2287 0.01922,0.34398c-0.00443,0.11528 -0.01946,0.22913 -0.04507,0.34158c-0.02574,0.11257 -0.06164,0.22168 -0.1077,0.32736c-0.04619,0.10579 -0.10179,0.20635 -0.16681,0.30167c-0.0649,0.09532 -0.13812,0.18375 -0.21965,0.26528l-2.26486,2.26671c-0.08165,0.08165 -0.17014,0.15506 -0.26547,0.2202c-0.09545,0.06502 -0.19606,0.12069 -0.30186,0.167c-0.10579,0.04619 -0.21497,0.08215 -0.32754,0.10789c-0.11257,0.02574 -0.22655,0.04082 -0.34194,0.04526c-0.1154,0.00431 -0.23018,-0.00209 -0.34434,-0.01922c-0.11417,-0.01712 -0.22575,-0.0447 -0.33474,-0.08276c-0.10899,-0.03805 -0.21349,-0.08597 -0.31349,-0.14373c-0.10013,-0.05764 -0.19397,-0.12408 -0.28154,-0.19933c-5.20117,-4.46986 -11.24831,-6.7048 -18.14142,-6.7048c-7.68562,-0.00086 -14.25378,2.72393 -19.70447,8.17437c-5.45057,5.45032 -8.17585,12.01835 -8.17585,19.7041c0,7.6871 2.72553,14.25674 8.17659,19.7089c5.41337,5.4146 11.929,8.14075 19.54689,8.17843zM267.70293,279.16478c0,-2.02039 0.71185,-3.74016 2.13554,-5.1593l0.00222,-0.00222c0.17316,-0.17328 0.3066,-0.3731 0.40032,-0.59946c0.09372,-0.22624 0.14058,-0.46184 0.14058,-0.7068c0,-0.24508 -0.04692,-0.48075 -0.14077,-0.70698c-0.09372,-0.22636 -0.22722,-0.42612 -0.40051,-0.59928l-6.47129,-6.46944l-0.00018,-0.00018c-0.08584,-0.08572 -0.1792,-0.16226 -0.28006,-0.22963c-0.10087,-0.06736 -0.20734,-0.12427 -0.31941,-0.1707c-0.11207,-0.04643 -0.2276,-0.08141 -0.34656,-0.10493c-0.11897,-0.02365 -0.23911,-0.03547 -0.36042,-0.03547c-0.12131,0 -0.24145,0.01188 -0.36042,0.03565c-0.11897,0.02365 -0.23443,0.05868 -0.34638,0.10511c-0.11207,0.04643 -0.21854,0.10339 -0.31941,0.17088c-0.10087,0.06736 -0.19416,0.14397 -0.27987,0.22981c-3.93081,3.93302 -5.89621,8.68067 -5.89621,14.24294c0,5.56116 1.96627,10.30801 5.8988,14.24054c3.9329,3.9329 8.68055,5.89935 14.24294,5.89935c5.56104,0 10.30789,-1.9662 14.24054,-5.89861c3.93105,-3.93081 5.8975,-8.67531 5.89935,-14.23352v-0.00998c-0.00185,-5.55673 -1.96861,-10.30314 -5.90027,-14.23925l-5.16318,-5.16281l29.92682,-29.91795c1.43219,-1.42764 3.15455,-2.14146 5.16706,-2.14146c0.0362,0 0.07242,-0.00105 0.10862,-0.00314c4.78983,0.04003 7.18474,2.47528 7.18474,7.30574c0,4.86348 -2.43297,7.29522 -7.29891,7.29522c-2.01436,0 -3.73566,-0.71339 -5.16391,-2.14016c-0.08572,-0.08572 -0.17901,-0.1622 -0.27987,-0.22944c-0.10099,-0.06736 -0.20752,-0.12427 -0.31959,-0.1707c-0.11207,-0.04631 -0.22754,-0.08129 -0.34638,-0.10493c-0.11897,-0.02353 -0.23911,-0.03529 -0.36042,-0.03529c-0.12131,0 -0.24145,0.01188 -0.36042,0.03565c-0.11885,0.02365 -0.23431,0.05875 -0.34638,0.1053c-0.11207,0.04643 -0.21848,0.10333 -0.31922,0.1707c-0.10087,0.06736 -0.19416,0.14397 -0.27987,0.22981l-6.46944,6.47314l-0.00074,0.00074c-0.08572,0.08584 -0.1622,0.1792 -0.22944,0.28006c-0.06736,0.10099 -0.1242,0.20752 -0.17051,0.31959c-0.04631,0.11207 -0.08129,0.2276 -0.10493,0.34656c-0.02353,0.11897 -0.03522,0.23911 -0.0351,0.36042c0.00012,0.12131 0.01207,0.24145 0.03584,0.36042c0.02377,0.11897 0.05887,0.23449 0.1053,0.34656c0.04655,0.11195 0.10358,0.21836 0.17106,0.31922c0.06749,0.10074 0.14416,0.19397 0.23,0.27969c3.93684,3.93032 8.68486,5.89547 14.24405,5.89547c5.56239,0 10.30973,-1.96614 14.24201,-5.89843c3.93192,-3.93192 5.89787,-8.67846 5.89787,-14.23961c0,-5.56313 -1.96559,-10.31152 -5.89677,-14.24516c-3.93229,-3.93475 -8.67999,-5.90212 -14.24313,-5.90212c-0.04076,0 -0.08147,0.00136 -0.12211,0.00407c-5.50303,0.02993 -10.20948,1.99657 -14.11935,5.8999l-5.16059,5.16023l-29.91795,-29.9198c-1.42788,-1.43712 -2.14182,-3.16083 -2.14182,-5.17112c0,-0.0362 -0.00105,-0.07242 -0.00314,-0.10862c0.0399,-4.7886 2.47331,-7.18289 7.3002,-7.18289c4.86594,0 7.29891,2.43297 7.29891,7.29891c0,2.01522 -0.7124,3.73671 -2.13721,5.16447c-0.0856,0.08584 -0.16201,0.1792 -0.22925,0.28006c-0.06724,0.10087 -0.12402,0.20734 -0.17033,0.31941c-0.04631,0.11207 -0.08123,0.2276 -0.10474,0.34656c-0.02365,0.11885 -0.03541,0.23893 -0.03529,0.36023c0.00012,0.12119 0.01201,0.24127 0.03565,0.36023c0.02377,0.11885 0.05887,0.23425 0.1053,0.34619c0.04643,0.11207 0.10333,0.21848 0.1707,0.31922c0.06749,0.10074 0.14409,0.19397 0.22981,0.27969l6.46944,6.46575c0.08572,0.08572 0.17901,0.16226 0.27987,0.22963c0.10087,0.06736 0.20727,0.1242 0.31922,0.17051c0.11207,0.04643 0.2276,0.08147 0.34656,0.10511c0.11885,0.02365 0.23893,0.03547 0.36023,0.03547c0.12131,0 0.24139,-0.01182 0.36023,-0.03547c0.11897,-0.02365 0.23449,-0.05868 0.34656,-0.10511c0.11195,-0.04631 0.21836,-0.10314 0.31922,-0.17051c0.10087,-0.06736 0.19416,-0.14391 0.27987,-0.22963c3.93376,-3.93154 5.90065,-8.67883 5.90065,-14.24183c0,-5.56054 -1.96639,-10.30714 -5.89917,-14.2398c-3.93327,-3.93339 -8.68141,-5.90009 -14.24442,-5.90009c-5.56042,0 -10.30758,1.96614 -14.24146,5.89843c-3.93475,3.93315 -5.90212,8.6803 -5.90212,14.24146c0,0.04076 0.00136,0.08153 0.00407,0.12229c0.03042,5.50624 1.99761,10.21133 5.90157,14.11529l5.15893,5.16023l-29.9246,29.9211c-1.4338,1.42616 -3.15726,2.13924 -5.17038,2.13924c-0.0362,0 -0.07242,0.00105 -0.10862,0.00314c-4.78613,-0.04003 -7.1792,-2.47404 -7.1792,-7.30205c0,-4.86594 2.43174,-7.29891 7.29522,-7.29891c2.01583,0 3.7369,0.71314 5.16318,2.13942l0.00037,0.00037c0.08584,0.08572 0.1792,0.16226 0.28006,0.22963c0.10087,0.06736 0.20734,0.12427 0.31941,0.1707c0.11207,0.04643 0.2276,0.08141 0.34656,0.10493c0.11897,0.02365 0.23911,0.03547 0.36042,0.03547c0.12131,0 0.24145,-0.01188 0.36042,-0.03565c0.11897,-0.02365 0.23443,-0.05868 0.34638,-0.10511c0.11207,-0.04643 0.21854,-0.10339 0.31941,-0.17088c0.10087,-0.06736 0.19416,-0.14397 0.27987,-0.22981l6.46575,-6.46944c0.08572,-0.08572 0.16226,-0.17901 0.22963,-0.27987c0.06736,-0.10087 0.12427,-0.20734 0.1707,-0.31941c0.04631,-0.11207 0.08129,-0.2276 0.10493,-0.34656c0.02365,-0.11897 0.03547,-0.23905 0.03547,-0.36023c0,-0.12131 -0.01182,-0.24145 -0.03547,-0.36042c-0.02377,-0.11897 -0.05881,-0.23443 -0.10511,-0.34638c-0.04643,-0.11207 -0.10339,-0.21854 -0.17088,-0.31941c-0.06736,-0.10087 -0.14391,-0.19416 -0.22963,-0.27987c-3.93229,-3.93229 -8.67944,-5.89843 -14.24146,-5.89843c-5.5603,0 -10.3069,1.9662 -14.2398,5.89861c-3.93339,3.93278 -5.90009,8.67987 -5.90009,14.24128c0,5.5619 1.96614,10.30979 5.89843,14.24368c3.93278,3.9345 8.67993,5.90175 14.24146,5.90175c0.04076,0 0.08153,-0.00136 0.12229,-0.00407c5.50303,-0.03042 10.20813,-1.997 14.11529,-5.89972l5.16373,-5.16281l29.92368,29.93088c1.42703,1.42554 2.14053,3.14629 2.14053,5.16226c-0.00529,4.8636 -2.43827,7.2954 -7.29891,7.2954c-4.86717,0 -7.30075,-2.43297 -7.30075,-7.29891zM275.00904,250.67465l15.6752,-15.67427l-15.67409,-15.67778l-15.67667,15.67205z"
                      data-paper-data="{&quot;isPathIcon&quot;:true}" style="fill: #7c3aed;"/>
            </g>
            <g data-paper-data="{&quot;isContainerElementsWrapper&quot;:true}" style="fill: rgb(255, 255, 255);">
                <path d="M146,235c0,-71.24473 57.75527,-129 129,-129c71.24499,0 129,57.75527 129,129c0,71.24499 -57.75501,129 -129,129c-71.24473,0 -129,-57.75501 -129,-129zM274.02214,141.02882l4.47563,-0.33097l-11.91885,-19.30226l-8.92306,20.84361l4.23725,-0.31333l1.07523,-2.74235l9.56029,-0.70699zM294.38588,136.78669c0.27177,-1.56995 -0.60723,-2.71923 -2.45503,-3.2547c-3.30742,-0.97687 -5.13847,-3.47674 -4.60848,-6.5382c0.57075,-3.29685 4.00913,-5.1002 6.70423,-4.6336c1.9359,0.33516 3.64108,1.38488 4.82405,3.42233l-3.59474,1.77614c-0.42834,-0.64002 -1.21934,-1.20818 -1.89972,-1.32598c-1.07274,-0.18567 -1.91866,0.34163 -2.10442,1.41438c-0.15397,0.88967 0.35977,1.81401 2.4042,2.30275c3.28719,0.78462 5.64515,3.51053 4.99237,7.27837c-0.65676,3.79406 -4.29395,5.96715 -7.72166,5.37377c-2.22411,-0.38499 -4.30781,-1.58121 -5.81228,-3.94375l3.77502,-1.87979c0.69493,1.27914 1.56088,1.72551 2.71215,1.92483c1.33445,0.23101 2.56684,-0.66055 2.7843,-1.91656zM242.30013,143.11461l1.03437,3.2657l-3.92392,1.24288l-5.97382,-18.86003l6.55674,-2.07682c4.43019,-1.40321 8.87294,0.83864 10.17191,4.93975c1.53158,4.83521 -0.62507,9.19524 -5.61226,10.77485zM313.49071,139.59471c1.68725,0.92445 2.29517,2.23737 1.68824,3.71064c-0.48534,1.17868 -1.88158,1.78093 -3.13431,1.26528c-1.08032,-0.44488 -1.82876,-1.06885 -2.2284,-2.46848l-4.09304,1.01394c0.95474,2.63316 2.7277,4.25379 4.81557,5.11323c3.21603,1.32454 7.23931,-0.00572 8.70531,-3.56621c1.45603,-3.53584 -0.25314,-6.70922 -3.29078,-8.18977c-1.88956,-0.92156 -2.18953,-1.9355 -1.8457,-2.77035c0.41459,-1.00677 1.35438,-1.33754 2.36194,-0.92295c0.63782,0.2629 1.28661,0.98943 1.56566,1.70728l3.89571,-0.95185c-0.71257,-2.24604 -2.14867,-3.64138 -3.96547,-4.38953c-2.52937,-1.04145 -6.27759,-0.029 -7.55124,3.06495c-1.18297,2.8729 0.06079,5.71112 3.07651,7.38381zM266.98015,128.98141l3.47345,5.92071l-5.98509,0.44259zM238.48325,131.06441l2.69431,8.50609l2.15176,-0.68167c2.7847,-0.88199 3.81698,-3.07531 2.98313,-5.70813c-0.72971,-2.30364 -2.71544,-3.73596 -5.44951,-2.87001zM329.75025,154.30157l-2.0231,2.76473l-3.32167,-2.4303l11.68116,-15.96683l5.55107,4.06095c3.75021,2.74391 4.56842,7.65253 2.02808,11.12451c-2.99479,4.09351 -7.78644,4.93124 -12.00804,1.84241zM337.2128,144.09995l-5.26803,7.20116l1.82179,1.33274c2.35796,1.72473 4.73684,1.2609 6.36728,-0.96802c1.42713,-1.95031 1.40919,-4.39864 -0.90591,-6.09201zM201.87598,160.89702l2.30805,11.7641l3.18167,-2.97376l-1.66642,-8.51089l8.51486,2.11009l3.37569,-3.15507l-12.05508,-2.9812l-2.07452,-10.89196l-3.18169,2.97375l1.46913,7.67754l-7.6385,-1.91139l-3.39509,3.1732zM195.27194,235c0,-44.03261 35.69545,-79.72806 79.72806,-79.72806c44.03281,0 79.72806,35.69545 79.72806,79.72806c0,44.03281 -35.69525,79.72806 -79.72806,79.72806c-44.03261,0 -79.72806,-35.69525 -79.72806,-79.72806zM348.09169,176.75796c3.52896,4.42052 9.968,5.12422 14.38892,1.59556c4.42092,-3.52856 5.14146,-9.94767 1.59556,-14.38903c-3.52797,-4.42059 -9.94707,-5.14086 -14.36799,-1.61221c-4.42092,3.52868 -5.1614,9.96433 -1.61649,14.40568zM361.00465,166.41633c2.08788,2.61498 1.56068,6.46714 -1.15805,8.63734c-2.76058,2.20338 -6.57557,1.85089 -8.66245,-0.76419c-2.12077,-2.65644 -1.60253,-6.43395 1.15805,-8.63734c2.71873,-2.17019 6.55863,-1.87159 8.66245,0.76419zM180.55683,170.98714l2.37251,-3.36343l16.16641,11.40331l-2.3725,3.36343zM188.72394,198.64311c2.04951,-4.87079 0.1627,-9.15069 -5.14871,-11.38567l-10.10882,-4.25349l-1.59636,3.79386l10.42703,4.38744c2.74135,1.15347 3.96424,3.1085 2.77982,5.9233c-1.13284,2.69242 -3.33532,3.40788 -6.19916,2.20289l-10.42694,-4.38744l-1.59636,3.79396l9.79061,4.11955c5.06662,2.13193 9.83368,1.14151 12.07887,-4.19439zM362.52646,200.54632l1.91547,-4.3084l-0.79728,-1.91188l-3.16221,1.3181l-1.5836,-3.79914l18.26072,-7.61214l2.64597,6.34825c1.7879,4.28937 -0.05382,8.9123 -4.02427,10.56756c-3.2838,1.36913 -6.34037,0.80177 -8.57974,-1.25681l-2.57023,5.70365zM375.31185,189.46242l-8.23591,3.43319l0.86904,2.08339c1.12317,2.6962 3.39941,3.53126 5.94871,2.46858c2.23039,-0.92983 3.48212,-3.03395 2.37889,-5.68112zM367.98584,220.67825l15.82801,-2.75789l0.89295,5.12751l3.66251,-0.63812l-2.43868,-13.99606l-3.66251,0.63812l0.83914,4.81358l-15.82801,2.75799zM161.61873,222.49705l19.52341,3.19749l1.95284,-11.92373l-3.66889,-0.60085l-1.28751,7.86178l-15.85462,-2.59654zM387.8162,252.77707l-15.82801,-2.75789l0.89395,-5.12751l-3.66251,-0.63822l-2.43868,13.99626l3.66251,0.63782l0.83814,-4.81338l15.82801,2.75739zM161.27809,247.55866l19.52341,-3.19739l0.66523,4.06195l-15.85462,2.59654l1.28761,7.86178l-3.66889,0.60095zM169.53433,279.43145c2.04951,4.87039 6.42867,6.51378 11.74016,4.2794l10.10877,-4.25349l-1.59636,-3.79406l-10.42699,4.38704c-2.74135,1.15406 -4.99417,0.66075 -6.17853,-2.15365c-1.13294,-2.69282 -0.10454,-4.76774 2.75919,-5.97263l10.42703,-4.38704l-1.59636,-3.79406l-9.79061,4.11995c-5.06662,2.13173 -7.69147,6.23274 -5.44632,11.56854zM381.10509,277.19907l-4.40797,1.6723l-0.79728,1.91148l3.16221,1.3185l-1.5836,3.79904l-18.26072,-7.61303l2.64597,-6.34735c1.7879,-4.28937 6.36828,-6.23573 10.33874,-4.58038c3.2848,1.36933 5.03283,3.93956 5.14645,6.9782l5.86101,-2.18854zM364.23264,275.91943l8.23591,3.43329l0.86804,-2.08389c1.12417,-2.69581 0.11561,-4.90029 -2.4337,-5.96266c-2.23039,-0.92983 -4.60629,-0.33785 -5.70953,2.30912zM196.44115,287.80888l2.3725,3.36353l-16.16645,11.40311l-2.37241,-3.36353zM364.3632,306.23004c3.52797,-4.42092 2.78749,-10.85597 -1.63343,-14.38494c-4.42092,-3.52896 -10.84003,-2.80842 -14.38494,1.63343c-3.52896,4.41992 -2.80842,10.83903 1.6125,14.36799c4.41992,3.52896 10.85996,2.82536 14.40586,-1.61649zM351.41636,295.93018c2.08788,-2.61508 5.96067,-2.95492 8.6794,-0.78532c2.76058,2.20348 3.26187,6.00153 1.17499,8.61661c-2.12077,2.65694 -5.91881,2.98881 -8.6794,0.78532c-2.71873,-2.1706 -3.27882,-5.9806 -1.17499,-8.61661zM202.02104,308.94778l-11.58151,3.09644l3.1817,2.97386l8.37901,-2.23637l-1.53063,8.63754l3.3757,3.15524l2.16082,-12.22929l10.72711,-2.80443l-3.18165,-2.97386l-7.56091,1.98423l1.39155,-7.75056l-3.39513,-3.17318zM337.58952,326.4142l2.0231,2.76457l-3.32267,2.43071l-11.68116,-15.96654l5.55107,-4.06115c3.75121,-2.74364 8.67641,-2.03705 11.21674,1.43411c2.99479,4.09404 2.34301,8.91459 -1.87959,12.00306zM330.12597,316.21299l5.26803,7.20044l1.82179,-1.33246c2.35796,-1.72412 2.63601,-4.1329 1.00557,-6.3613c-1.42713,-1.95035 -3.76615,-2.67388 -6.08026,-0.98066zM314.48133,332.81138c1.84869,-0.53119 3.20507,-0.02691 3.812,1.44607c0.48534,1.17898 -0.08172,2.59017 -1.33445,3.10541c-1.08032,0.44548 -2.051,0.52919 -3.32067,-0.18337l-2.19252,3.60271c2.53236,1.19692 4.93218,1.09925 7.02006,0.23918c3.21603,-1.32448 5.13548,-5.1016 3.66948,-8.66146c-1.45603,-3.53594 -4.90328,-4.58636 -8.10236,-3.49907c-1.99121,0.67669 -2.91805,0.16843 -3.26187,-0.66673c-0.41459,-1.00657 0.01993,-1.90351 1.0265,-2.31809c0.63882,-0.2631 1.61051,-0.2043 2.31411,0.10963l2.09585,-3.41934c-2.08688,-1.09327 -4.08905,-1.07334 -5.90586,-0.32489c-2.52937,1.04145 -4.47773,4.39999 -3.20407,7.49344c1.18297,2.8732 4.06513,4.01231 7.38381,3.07651zM238.29081,339.54342l-1.03437,3.26586l-3.92392,-1.24376l5.97382,-18.85967l6.55674,2.07692c4.43019,1.40321 6.772,5.79424 5.47303,9.89525c-1.53158,4.83551 -5.8051,7.15858 -10.79219,5.57897zM242.10769,327.49252l-2.69421,8.50599l2.15176,0.68167c2.7847,0.88199 4.89152,-0.31692 5.72547,-2.94894c0.72971,-2.30414 -0.06926,-4.61825 -2.80334,-5.48429zM295.78112,341.27252c-0.27207,-1.56965 -1.48613,-2.35696 -3.40628,-2.24036c-3.44336,0.19234 -6.00821,-1.54672 -6.5382,-4.60828c-0.57075,-3.29676 2.06137,-6.15102 4.75648,-6.61743c1.9362,-0.33585 3.89472,0.07973 5.69428,1.60154l-2.78919,2.88117c-0.61849,-0.45943 -1.5544,-0.72852 -2.23478,-0.61092c-1.07274,0.18636 -1.69213,0.9667 -1.50646,2.04004c0.15407,0.88996 0.94856,1.58758 3.03834,1.36036c3.35954,-0.36575 6.49584,1.40919 7.14862,5.17634c0.65676,3.79406 -2.03805,7.06391 -5.46596,7.65688c-2.22401,0.38568 -4.58855,-0.04086 -6.79971,-1.76l2.92343,-3.03963c1.0844,0.97069 2.05011,1.10025 3.20138,0.90093c1.33425,-0.23121 2.19531,-1.48494 1.97805,-2.74065zM272.5376,349.04501l4.47553,0.33087l-8.94957,-20.8449l-11.89234,19.30416l4.23725,0.31293l1.467,-2.55429l9.56029,0.70659zM267.34451,336.09319l2.56465,6.36728l-5.98509,-0.44349z"
                      data-paper-data="{&quot;isBaseLogoContainer&quot;:true}" style="fill: #7c3aed;"/>
            </g>
        </g>
    </g>
</svg>