<svg xmlns="http://www.w3.org/2000/svg" viewBox="114.03 39.79 335.52 50.37">
    <g transform="matrix(1, 0, 0, 1, -35.45197677612305, -170.0282440185547)" fill="#7c3aed" fill-rule="nonzero" stroke="none">
        <path d="M149.48122,210.71312v48.50457h9.68708v-19.37415h6.01983c8.02643,0 14.53061,-6.50418 14.53061,-14.53061c0,-8.02643 -6.50418,-14.59981 -14.53061,-14.59981zM159.16829,230.15646v-9.75627h6.01983c2.62935,0 4.84354,2.21419 4.84354,4.91273c0,2.69854 -2.21419,4.84354 -4.84354,4.84354z"/>
        <path d="M203.72884,210.71312l-24.70204,48.50457h10.86336l15.01497,-29.47639l13.83868,29.47639h10.72498l-22.90301,-48.50457z"/>
        <path d="M252.16422,238.73644l0.20758,0.06919c5.05112,1.72983 8.02643,4.1516 8.02643,6.78095c0,1.24548 -1.31467,4.91273 -5.32789,4.91273c-2.145,0 -7.88805,0 -13.00836,-5.46628l-7.05773,6.64257c3.32128,3.52886 7.19611,5.95063 11.5553,7.3345c3.45967,1.0379 6.36579,1.17629 8.51079,1.17629c4.35918,0 8.30321,-1.79903 11.14014,-4.98192c2.42177,-2.69854 3.87483,-6.22741 3.87483,-9.61788c0,-3.45967 -1.31467,-6.71176 -3.80564,-9.4795c-2.49096,-2.69854 -6.08902,-4.84354 -10.72498,-6.43499c-0.41516,-0.13839 -0.83032,-0.27677 -1.38387,-0.41516c-4.42838,-1.10709 -6.15821,-2.49096 -6.22741,-4.98192c-0.06919,-1.59145 0.41516,-2.35258 0.83032,-2.76774c1.24548,-1.31467 3.66725,-1.79903 4.28999,-1.79903c4.2208,0 6.22741,1.31467 9.34111,3.32128l1.72983,1.10709l5.05112,-8.23401l-1.59145,-1.0379c-3.52886,-2.28338 -7.47289,-4.84354 -14.53061,-4.84354c-2.49096,0 -7.68047,1.0379 -11.27852,4.77434c-2.49096,2.62935 -3.73644,6.01983 -3.52886,9.89466c0.20758,4.63596 2.35258,8.3724 6.22741,10.93256c2.76774,1.86822 5.74305,2.62935 7.3345,3.04451z"/>
        <path d="M293.47268,238.73644l0.20758,0.06919c5.05112,1.72983 8.02643,4.1516 8.02643,6.78095c0,1.24548 -1.31467,4.91273 -5.32789,4.91273c-2.145,0 -7.88805,0 -13.00836,-5.46628l-7.05773,6.64257c3.32128,3.52886 7.19611,5.95063 11.5553,7.3345c3.45967,1.0379 6.36579,1.17629 8.51079,1.17629c4.35918,0 8.30321,-1.79903 11.14014,-4.98192c2.42177,-2.69854 3.87483,-6.22741 3.87483,-9.61788c0,-3.45967 -1.31467,-6.71176 -3.80564,-9.4795c-2.49096,-2.69854 -6.08902,-4.84354 -10.72498,-6.43499c-0.41516,-0.13839 -0.83032,-0.27677 -1.38387,-0.41516c-4.42838,-1.10709 -6.15821,-2.49096 -6.22741,-4.98192c-0.06919,-1.59145 0.41516,-2.35258 0.83032,-2.76774c1.24548,-1.31467 3.66725,-1.79903 4.28999,-1.79903c4.2208,0 6.22741,1.31467 9.34111,3.32128l1.72983,1.10709l5.05112,-8.23401l-1.59145,-1.0379c-3.52886,-2.28338 -7.47289,-4.84354 -14.53061,-4.84354c-2.49096,0 -7.68047,1.0379 -11.27852,4.77434c-2.49096,2.62935 -3.73644,6.01983 -3.52886,9.89466c0.20758,4.63596 2.35258,8.3724 6.22741,10.93256c2.76774,1.86822 5.74305,2.62935 7.3345,3.04451z"/>
        <path d="M318.86665,210.71312v48.50457h9.68708v-19.37415h6.01983c8.02643,0 14.53061,-6.50418 14.53061,-14.53061c0,-8.02643 -6.50418,-14.59981 -14.53061,-14.59981zM328.55373,230.15646v-9.75627h6.01983c2.62935,0 4.84354,2.21419 4.84354,4.91273c0,2.69854 -2.21419,4.84354 -4.84354,4.84354z"/>
        <path d="M379.06491,209.8136c-13.83868,0 -25.1172,11.27852 -25.1172,25.1172c0,13.83868 11.27852,25.1172 25.1172,25.1172c13.83868,0 25.1172,-11.27852 25.1172,-25.1172c0,-13.83868 -11.27852,-25.1172 -25.1172,-25.1172zM379.06491,219.77745c8.3724,0 15.15335,6.78095 15.15335,15.15335c0,8.3724 -6.78095,15.15335 -15.15335,15.15335c-8.3724,0 -15.15335,-6.78095 -15.15335,-15.15335c0,-8.3724 6.78095,-15.15335 15.15335,-15.15335z"/>
        <path d="M430.75238,220.331c2.69854,0 4.84354,2.21419 4.84354,4.91273c0,2.69854 -2.145,4.84354 -4.84354,4.84354h-3.73644v9.68708l9.06433,19.44334h10.30982l-9.61788,-20.75802c5.05112,-2.28338 8.51079,-7.3345 8.51079,-13.21594c0,-8.02643 -6.50418,-14.59981 -14.53061,-14.59981h-18.95899v48.50457h9.68708v-38.8175z"/>
        <path d="M448.39669,210.71312v9.68708h13.49271v38.8175h9.68708v-38.8175h13.42352v-9.68708z"/>
    </g>
</svg>