<svg xmlns="http://www.w3.org/2000/svg" viewBox="65 209.35 51.3 51.3">
    <g fill-rule="evenodd" fill="#7c3aed" stroke="none" stroke-width="1" stroke-linecap="butt"
       stroke-linejoin="miter"
       stroke-miterlimit="10" stroke-dasharray="" stroke-dashoffset="0" font-family="none"
       font-size="none" style="mix-blend-mode: normal;">
        <path d="M105.54822,224.30852c0.01906,-0.00175 0.03818,-0.00263 0.05737,-0.00263c2.94877,0 5.46836,1.04543 7.55876,3.13629c2.09023,2.09069 3.13535,4.61038 3.13535,7.55907c0,2.94831 -1.04508,5.4675 -3.13523,7.55757c-2.09023,2.09011 -4.60945,3.135 -7.55763,3.13466c-2.3874,0 -4.51068,-0.69949 -6.36986,-2.09847c1.39498,1.8533 2.09645,3.96 2.10441,6.32012c0.00087,0.01351 0.00131,0.02705 0.00131,0.0406c0,2.9484 -1.04501,5.4678 -3.13504,7.5582c-2.09023,2.09061 -4.60971,3.13591 -7.55845,3.13591c-2.94869,0 -5.4683,-1.04526 -7.55882,-3.13579c-2.09027,-2.09028 -3.13558,-4.60951 -3.13591,-7.5577c0,-2.38318 0.69801,-4.50437 2.09403,-6.36354c-1.851,1.39201 -3.956,2.092 -6.31499,2.09997c-0.01356,0.00087 -0.02711,0.00131 -0.04067,0.00131c-2.9484,0 -5.46761,-1.0452 -7.55763,-3.1356c-2.09015,-2.09048 -3.13523,-4.6104 -3.13523,-7.55976c0,-2.94752 1.04508,-5.46648 3.13523,-7.55689c2.09036,-2.09065 4.60957,-3.13598 7.55763,-3.13598c2.3836,0 4.50485,0.69805 6.36373,2.09415c-1.39952,-1.86159 -2.0996,-3.9804 -2.10022,-6.35641c0,-2.94777 1.04508,-5.46692 3.13523,-7.55745c2.09032,-2.09069 4.60953,-3.13604 7.55763,-3.13604c2.9489,0 5.4684,1.04533 7.55851,3.13598c2.08982,2.09036 3.13439,4.60932 3.13372,7.55689c0,2.38777 -0.69841,4.51026 -2.09522,6.36748c1.84696,-1.3901 3.94762,-2.09076 6.30198,-2.10197zM105.65996,225.55722c-0.0181,0.00159 -0.03622,0.00238 -0.05436,0.00238c-2.32384,0 -4.36882,0.75857 -6.13494,2.27571c-0.02965,0.02544 -0.06141,0.04792 -0.09528,0.06744c-0.03387,0.01952 -0.06925,0.03572 -0.10616,0.04861c-0.03687,0.01289 -0.07464,0.02223 -0.1133,0.02803c-0.03866,0.0058 -0.07751,0.00797 -0.11655,0.00651c-0.03908,-0.0015 -0.07766,-0.00659 -0.11574,-0.01526c-0.03812,-0.00872 -0.07509,-0.02089 -0.11092,-0.03654c-0.03583,-0.01564 -0.06988,-0.03447 -0.10216,-0.05649c-0.03228,-0.02202 -0.06225,-0.04686 -0.0899,-0.07451l-0.76699,-0.76699c-0.02765,-0.02765 -0.05249,-0.05762 -0.07451,-0.0899c-0.02202,-0.03232 -0.04085,-0.0664 -0.05649,-0.10222c-0.01564,-0.03583 -0.02782,-0.0728 -0.03654,-0.11092c-0.00872,-0.03812 -0.0138,-0.0767 -0.01526,-0.11574c-0.00146,-0.03908 0.00071,-0.07795 0.00651,-0.11661c0.00584,-0.03866 0.0152,-0.07645 0.02809,-0.11336c0.01289,-0.03691 0.02909,-0.0723 0.04861,-0.10616c0.01956,-0.03387 0.04208,-0.06563 0.06756,-0.09528c1.51242,-1.75945 2.26863,-3.80708 2.26863,-6.14289c0.00058,-2.60219 -0.92187,-4.82626 -2.76737,-6.67221c-1.84579,-1.84629 -4.07034,-2.76943 -6.67365,-2.76943c-2.60256,0 -4.82684,0.92317 -6.67284,2.7695c-1.84587,1.8462 -2.76881,4.07046 -2.76881,6.67278c0.00058,2.32367 0.75938,4.3689 2.27639,6.1357c0.02544,0.02961 0.04792,0.06135 0.06744,0.09522c0.01948,0.03382 0.03566,0.06917 0.04855,0.10604c0.01289,0.03687 0.02223,0.07464 0.02803,0.1133c0.0058,0.03862 0.00797,0.07743 0.00651,0.11642c-0.00146,0.03904 -0.00655,0.0776 -0.01526,0.11568c-0.00867,0.03808 -0.02081,0.07503 -0.03641,0.11086c-0.0156,0.03578 -0.03439,0.06982 -0.05637,0.1021c-0.02198,0.03232 -0.04678,0.06229 -0.07438,0.0899l-0.76512,0.76637c-0.02765,0.02769 -0.05762,0.05257 -0.0899,0.07464c-0.03228,0.02202 -0.06634,0.04087 -0.10216,0.05656c-0.03583,0.01568 -0.0728,0.02788 -0.11092,0.0366c-0.03812,0.00876 -0.07672,0.01389 -0.1158,0.01539c-0.03908,0.0015 -0.07795,-0.00065 -0.11661,-0.00644c-0.03866,-0.0058 -0.07645,-0.01514 -0.11336,-0.02803c-0.03695,-0.01289 -0.07236,-0.02909 -0.10623,-0.04861c-0.03387,-0.01952 -0.06565,-0.042 -0.09534,-0.06744c-1.76292,-1.51384 -3.81084,-2.27076 -6.14377,-2.27076c-2.60252,0 -4.8268,0.92314 -6.67284,2.76943c-1.84587,1.84612 -2.76881,4.07019 -2.76881,6.67221c0,2.6039 0.92294,4.82893 2.76881,6.67509c1.83661,1.8369 4.04805,2.7599 6.6343,2.769c0.01285,-0.00079 0.02569,-0.00119 0.03854,-0.00119c2.32338,0 4.36856,-0.75896 6.13557,-2.27689c0.02965,-0.02548 0.06143,-0.048 0.09534,-0.06756c0.03387,-0.01952 0.06925,-0.03572 0.10616,-0.04861c0.03695,-0.01289 0.07476,-0.02223 0.11342,-0.02803c0.03866,-0.0058 0.07753,-0.00795 0.11661,-0.00644c0.03908,0.0015 0.07768,0.00663 0.1158,0.01539c0.03812,0.00872 0.07512,0.02091 0.11098,0.0366c0.03583,0.01564 0.06988,0.03449 0.10216,0.05656c0.03228,0.02206 0.06225,0.04694 0.0899,0.07464l0.76512,0.76637c0.02757,0.02761 0.05234,0.05756 0.07432,0.08984c0.02202,0.03228 0.04083,0.06634 0.05643,0.10216c0.0156,0.03578 0.02774,0.07272 0.03641,0.11079c0.00872,0.03808 0.0138,0.07664 0.01526,0.11568c0.00146,0.03904 -0.00071,0.07787 -0.00651,0.11649c-0.0058,0.03862 -0.01514,0.07636 -0.02803,0.11323c-0.01285,0.03687 -0.02903,0.07221 -0.04855,0.10604c-0.01948,0.03387 -0.04194,0.0656 -0.06738,0.09522c-1.51347,1.76321 -2.2702,3.81096 -2.2702,6.14327c0.00029,2.60261 0.92346,4.82693 2.7695,6.67297c1.8462,1.8462 4.07088,2.76931 6.67403,2.76931c2.60319,0 4.82774,-0.92312 6.67365,-2.76937c1.83666,-1.83699 2.75951,-4.04867 2.76856,-6.63505c-0.00079,-0.0128 -0.00119,-0.02563 -0.00119,-0.03847c0,-2.32162 -0.75882,-4.36646 -2.27646,-6.13451c-0.02544,-0.02961 -0.04792,-0.06135 -0.06744,-0.09522c-0.01948,-0.03387 -0.03566,-0.06923 -0.04855,-0.1061c-0.01285,-0.03691 -0.02217,-0.07468 -0.02796,-0.1133c-0.0058,-0.03862 -0.00797,-0.07745 -0.00651,-0.11649c0.0015,-0.03904 0.00659,-0.0776 0.01526,-0.11568c0.00872,-0.03812 0.02087,-0.07507 0.03647,-0.11086c0.01564,-0.03583 0.03447,-0.06988 0.05649,-0.10216c0.02198,-0.03228 0.04678,-0.06223 0.07438,-0.08984l0.76699,-0.76762c0.02765,-0.02765 0.05762,-0.05251 0.0899,-0.07457c0.03232,-0.02202 0.0664,-0.04087 0.10222,-0.05656c0.03583,-0.01564 0.0728,-0.02782 0.11092,-0.03654c0.03812,-0.00872 0.07672,-0.01383 0.1158,-0.01533c0.03908,-0.00146 0.07795,0.00071 0.11661,0.00651c0.03866,0.0058 0.07645,0.01514 0.11336,0.02803c0.03691,0.01289 0.0723,0.02911 0.10616,0.04867c0.03391,0.01952 0.06569,0.04202 0.09534,0.0675c1.76137,1.51372 3.80923,2.27058 6.14358,2.27058c2.60273,0.00029 4.82703,-0.92246 6.6729,-2.76824c1.84583,-1.84575 2.76875,-4.07001 2.76875,-6.67278c0,-2.60323 -0.923,-4.82803 -2.769,-6.6744c-1.83323,-1.83365 -4.03975,-2.75686 -6.61954,-2.76962zM93.121,220.04363c0,-1.64784 -0.82413,-2.47177 -2.47239,-2.47177c-1.64605,0 -2.46998,0.82353 -2.47177,2.47058c0,0.6827 0.24163,1.26544 0.72489,1.74819l10.13363,10.13607l1.74869,-1.74838c1.32316,-1.32165 2.91653,-1.98764 4.78013,-1.99794c0.0138,-0.00092 0.02761,-0.00138 0.04141,-0.00138c1.88341,0 3.49103,0.66621 4.82286,1.99862c1.33167,1.33221 1.9975,2.94008 1.9975,4.82361c0,1.88337 -0.66602,3.49097 -1.99806,4.8228c-1.33187,1.33171 -2.93931,1.99756 -4.8223,1.99756c-1.88357,0 -3.49119,-0.66583 -4.82286,-1.9975c-0.02903,-0.02903 -0.05495,-0.06062 -0.07776,-0.09478c-0.02286,-0.03416 -0.04215,-0.07021 -0.05787,-0.10817c-0.01568,-0.03791 -0.02755,-0.07701 -0.0356,-0.1173c-0.00801,-0.04029 -0.01201,-0.08097 -0.01201,-0.12205c0,-0.04104 0.004,-0.08171 0.01201,-0.12199c0.00801,-0.04029 0.01985,-0.07941 0.03554,-0.11736c0.01572,-0.03795 0.03499,-0.07401 0.05781,-0.10817c0.02281,-0.03416 0.04873,-0.06575 0.07776,-0.09478l2.18962,-2.19087c0.02903,-0.02907 0.06062,-0.05501 0.09478,-0.07782c0.03416,-0.02286 0.07021,-0.04215 0.10817,-0.05787c0.03791,-0.01572 0.07701,-0.02759 0.1173,-0.0356c0.04029,-0.00805 0.08097,-0.01207 0.12205,-0.01207c0.04108,0 0.08177,0.004 0.12205,0.01201c0.04029,0.00797 0.07941,0.01981 0.11736,0.03554c0.03795,0.01572 0.07401,0.03499 0.10817,0.05781c0.03416,0.02281 0.06577,0.04873 0.09484,0.07776l0.00013,0.00013c0.48301,0.48301 1.06585,0.72451 1.74851,0.72451c1.64701,0 2.47052,-0.82392 2.47052,-2.47177c0,-1.635 -0.81041,-2.45928 -2.43123,-2.47283c-0.01226,0.00071 -0.02452,0.00106 -0.03678,0.00106c-0.68174,0 -1.26539,0.24148 -1.75095,0.72445l-10.13394,10.13276l1.74707,1.74751c1.32207,1.32207 1.98826,2.91545 1.99856,4.78013c0.00092,0.0138 0.00138,0.02761 0.00138,0.04141c0,1.88328 -0.66625,3.4909 -1.99875,4.82286c-1.33221,1.33167 -2.93983,1.9975 -4.82286,1.9975c-1.88391,0 -3.49186,-0.66602 -4.82386,-1.99806c-1.33183,-1.33179 -1.99775,-2.93922 -1.99775,-4.8223c0,-1.88391 0.66608,-3.49157 1.99825,-4.82299c0.02903,-0.02903 0.06062,-0.05495 0.09478,-0.07776c0.03416,-0.02281 0.07019,-0.04206 0.1081,-0.05774c0.03795,-0.01572 0.07708,-0.02759 0.11736,-0.0356c0.04025,-0.00801 0.08091,-0.01201 0.12199,-0.01201c0.04108,0 0.08175,0.004 0.12199,0.01201c0.04029,0.00801 0.07941,0.01987 0.11736,0.0356c0.03791,0.01568 0.07395,0.03493 0.1081,0.05774c0.03416,0.02281 0.06575,0.04873 0.09478,0.07776l2.19087,2.18962c0.02903,0.02903 0.05497,0.0606 0.07782,0.09472c0.02282,0.03411 0.04208,0.07015 0.05781,0.1081c0.01572,0.03791 0.02761,0.07699 0.03566,0.11724c0.00801,0.04029 0.01203,0.08095 0.01207,0.12199c0.00004,0.04108 -0.00394,0.08175 -0.01195,0.12199c-0.00796,0.04029 -0.01979,0.07941 -0.03547,0.11736c-0.01568,0.03795 -0.03491,0.07401 -0.05768,0.10817c-0.02277,0.03416 -0.04865,0.06577 -0.07764,0.09484c-0.48251,0.48351 -0.72376,1.06649 -0.72376,1.74895c0,1.64785 0.82392,2.47177 2.47177,2.47177c1.63462,0 2.45869,-0.81083 2.47221,-2.43248c-0.00071,-0.01226 -0.00106,-0.02452 -0.00106,-0.03678c0,-0.68079 -0.24178,-1.26452 -0.72533,-1.7512l-10.13169,-10.13232l-1.74763,1.74751c-1.32407,1.32186 -2.91791,1.98786 -4.78151,1.998c-0.01376,0.00092 -0.02755,0.00138 -0.04135,0.00138c-1.88395,0 -3.49176,-0.66625 -4.82342,-1.99875c-1.33129,-1.33212 -1.99694,-2.94016 -1.99694,-4.82411c0,-1.88328 0.66577,-3.49069 1.99731,-4.82223c1.33166,-1.33167 2.93935,-1.9975 4.82305,-1.9975c1.88262,0 3.49053,0.6655 4.82374,1.9965c0.02907,0.02903 0.05503,0.0606 0.07789,0.09472c0.02285,0.03416 0.04217,0.07019 0.05793,0.1081c0.01572,0.03795 0.02761,0.07708 0.03566,0.11736c0.00805,0.04029 0.0121,0.08097 0.01214,0.12205c0.00004,0.04108 -0.00392,0.08177 -0.01189,0.12205c-0.00801,0.04029 -0.01985,0.07941 -0.03554,0.11736c-0.01568,0.03795 -0.03493,0.07403 -0.05774,0.10823c-0.02277,0.03416 -0.04867,0.06577 -0.0777,0.09484l-0.00025,0.00025l-2.19087,2.19212c-0.02903,0.02907 -0.06062,0.05501 -0.09478,0.07782c-0.03411,0.02282 -0.07015,0.04208 -0.1081,0.05781c-0.03795,0.01576 -0.07705,0.02765 -0.1173,0.03566c-0.04029,0.00805 -0.08097,0.01207 -0.12205,0.01207c-0.04108,0 -0.08177,-0.00398 -0.12205,-0.01195c-0.04025,-0.00801 -0.07935,-0.01985 -0.1173,-0.03554c-0.03795,-0.01572 -0.07403,-0.03499 -0.10823,-0.05781c-0.03416,-0.02277 -0.06575,-0.04867 -0.09478,-0.0777c-0.48368,-0.48318 -1.0666,-0.72476 -1.74876,-0.72476c-1.64785,0 -2.47177,0.82351 -2.47177,2.47052c0,1.63583 0.81104,2.46053 2.43311,2.47408c0.01226,-0.00071 0.02452,-0.00106 0.03678,-0.00106c0.68153,0 1.26481,-0.24173 1.74982,-0.7252l10.1347,-10.13169l-1.74851,-1.74838c-1.33146,-1.33296 -1.9975,-2.94033 -1.99812,-4.82211v-0.00338c0.00063,-1.88228 0.66656,-3.48901 1.99781,-4.82017c1.33179,-1.33171 2.93931,-1.99756 4.82255,-1.99756c1.8837,0 3.49149,0.66594 4.82336,1.99781c1.33175,1.33175 1.99762,2.93926 1.99762,4.82255c0,1.88366 -0.66558,3.49145 -1.99675,4.82336c-0.02903,0.02907 -0.06062,0.05501 -0.09478,0.07782c-0.03416,0.02286 -0.07021,0.04215 -0.10817,0.05787c-0.03791,0.01572 -0.07701,0.02759 -0.1173,0.0356c-0.04029,0.00805 -0.08097,0.01207 -0.12205,0.01207c-0.04108,0 -0.08177,-0.004 -0.12205,-0.01201c-0.04029,-0.00797 -0.07941,-0.01981 -0.11736,-0.03554c-0.03795,-0.01572 -0.07401,-0.03499 -0.10817,-0.05781c-0.03416,-0.02281 -0.06577,-0.04873 -0.09484,-0.07776l-0.00006,-0.00006l-2.1915,-2.19087c-0.05868,-0.05864 -0.10389,-0.12629 -0.13563,-0.20295c-0.03178,-0.07661 -0.04767,-0.15642 -0.04767,-0.23942c0,-0.08295 0.01587,-0.16274 0.04761,-0.23936c0.03174,-0.07666 0.07693,-0.14433 0.13557,-0.20301l0.00075,-0.00075c0.48213,-0.48059 0.7232,-1.06299 0.7232,-1.74719zM90.64679,229.69179l-5.30839,5.30808l5.30802,5.30927l5.30889,-5.30733zM73.98164,218.33179c1.79291,-1.79292 3.80512,-3.25214 6.03664,-4.37768l-0.11264,0.1913l-0.03796,0.06841l-0.23744,0.45467l-0.03491,0.07125l-0.21371,0.46628l-0.03137,0.07344l-0.07383,0.18601c-1.67374,0.97409 -3.20883,2.15936 -4.60529,3.55581c-1.39511,1.39511 -2.57945,2.9286 -3.55301,4.60047l-0.0474,0.01912l-0.47056,0.20415l-0.07221,0.03357l-0.45936,0.22823l-0.06961,0.03683l-0.39317,0.22109c1.12529,-2.23005 2.5839,-4.24103 4.37583,-6.03295zM107.31811,218.33179c1.7927,1.79275 3.25181,3.80473 4.37734,6.03596l-0.18976,-0.1118l-0.06854,-0.03796l-0.45449,-0.23753l-0.07138,-0.03491l-0.46628,-0.21378l-0.07335,-0.03137l-0.18768,-0.07452c-0.97406,-1.67347 -2.15921,-3.20834 -3.55545,-4.6046c-1.39569,-1.39571 -2.92985,-2.58045 -4.60251,-3.55424l-0.01861,-0.0461l-0.20411,-0.4706l-0.03362,-0.07221l-0.22812,-0.4594l-0.03689,-0.06964l-0.22148,-0.39412c2.23085,1.12543 4.2425,2.58437 6.03493,4.37683zM107.31811,251.66826c-1.79322,1.7931 -3.80572,3.25247 -6.03749,4.3781l0.11292,-0.19183l0.03798,-0.06833l0.23751,-0.45471l0.03493,-0.07117l0.21349,-0.4665l0.03143,-0.07335l0.07365,-0.18552c1.674,-0.97422 3.20933,-2.15966 4.60598,-3.55631c1.39524,-1.39514 2.57965,-2.92866 3.55324,-4.60055l0.04712,-0.01904l0.47065,-0.20411l0.07226,-0.0334l0.4593,-0.22812l0.06964,-0.03689l0.39321,-0.22118c-1.12532,2.23004 -2.58393,4.24101 -4.37581,6.03289zM73.98164,251.66826c-1.79251,-1.79248 -3.25149,-3.80417 -4.37693,-6.03509l0.18943,0.11161l0.06841,0.03798l0.45467,0.23729l0.07127,0.03493l0.46628,0.21371l0.07344,0.03143l0.18782,0.07456c0.97396,1.67322 2.15899,3.20788 3.55509,4.60397c1.39485,1.39491 2.92801,2.5791 4.59948,3.55256l0.01903,0.04715l0.20415,0.47065l0.03355,0.07226l0.22821,0.4593l0.03683,0.06964l0.22119,0.39336c-2.22965,-1.12525 -4.24028,-2.58369 -6.03192,-4.37531z"
        ></path>
    </g>
</svg>